<?xml version="1.0" encoding="utf-8"?>
<!-- Generator: Adobe Illustrator 24.3.0, SVG Export Plug-In . SVG Version: 6.00 Build 0)  -->
<svg version="1.1" id="Layer_1" xmlns="http://www.w3.org/2000/svg" xmlns:xlink="http://www.w3.org/1999/xlink" x="0px" y="0px"
	 viewBox="0 0 190 46" style="enable-background:new 0 0 190 46;" xml:space="preserve">
<style type="text/css">
	.st0{clip-path:url(#SVGID_2_);}
	.st1{fill-rule:evenodd;clip-rule:evenodd;fill:#13BEF9;}
	.st2{fill-rule:evenodd;clip-rule:evenodd;fill:#B21010;}
	.st3{fill:#FFFFFF;}
	.st4{fill:#98A2B3;}
</style>
<g>
	<defs>
		<rect id="SVGID_1_" width="190" height="46"/>
	</defs>
	<clipPath id="SVGID_2_">
		<use xlink:href="#SVGID_1_"  style="overflow:visible;"/>
	</clipPath>
	<g class="st0">
		<path class="st1" d="M10.9,10h-0.7v3.7h0.7V10z"/>
		<path class="st1" d="M13.9,10h-0.7v3.7h0.7V10z"/>
		<path class="st1" d="M18,3l-0.7-1.3l-11.9,7L6.1,10L18,3z"/>
		<path class="st1" d="M17.9,3l0.7-1.3l11.9,7L29.9,10L17.9,3z"/>
		<path class="st1" d="M32.7,10V8.6H0V10H32.7z"/>
		<path class="st1" d="M19.7,30.5V9h1.4v22.5C20.8,31.1,20.3,30.8,19.7,30.5z"/>
		<path class="st1" d="M17.3,30.1V-0.2h1.4v30.5C18.3,30.1,17.4,30.1,17.3,30.1z"/>
		<path class="st1" d="M3.7,33.1c-1.7-1.3-2.9-3.4-2.9-5.8c0-1.3,0.3-2.5,0.9-3.6H14c0.6,1.1,0.9,2.3,0.9,3.6c0,1.1-0.1,2.1-0.6,3
			c-0.9-0.9-2.3-1.3-3.7-1.3c-2.4,0-4.5,1.5-5.1,3.8c-0.2,0-0.3,0-0.5,0C4.6,32.9,4.2,33,3.7,33.1z"/>
		<path class="st1" d="M9.7,15.3H6V19h3.7V15.3z"/>
		<path class="st1" d="M5.6,15.3H1.9V19h3.7V15.3z"/>
		<path class="st1" d="M5.6,19.5H1.9v3.8h3.7V19.5z"/>
		<path class="st1" d="M9.7,19.5H6v3.8h3.7V19.5z"/>
		<path class="st1" d="M13.9,19.5h-3.7v3.8h3.7V19.5z"/>
		<path class="st1" d="M13.9,13.3h-3.7V17h3.7V13.3z"/>
		<path class="st2" d="M6.2,33.7c0.5-2.2,2.4-3.8,4.7-3.8c1.5,0,2.8,0.7,3.7,1.7c0.8-0.5,1.7-0.9,2.8-0.9c2.7,0,4.9,2.2,4.9,4.9
			c0,0.6-0.1,1.1-0.3,1.6c0.6,0.8,1,1.8,1,2.9c0,2.7-2.2,4.9-4.9,4.9c-1.2,0-2.3-0.4-3.1-1.1c-0.9,1.3-2.3,2.1-4,2.1
			c-1.9,0-3.5-1.1-4.3-2.7c-0.3,0.1-0.7,0.1-1,0.1c-2.7,0-4.9-2.2-4.9-4.9c0-2.7,2.2-4.9,4.9-4.9C5.9,33.7,6.1,33.7,6.2,33.7z"/>
		<path class="st3" d="M44,12.9c0.5-0.7,1.2-1.2,2.1-1.7c0.9-0.5,1.8-0.7,2.9-0.7c1.2,0,2.4,0.3,3.4,0.9c1,0.6,1.9,1.5,2.4,2.6
			c0.6,1.1,0.9,2.4,0.9,3.8c0,1.4-0.3,2.7-0.9,3.9c-0.6,1.1-1.4,2-2.4,2.7c-1,0.6-2.2,0.9-3.4,0.9c-1.1,0-2.1-0.2-2.9-0.6
			c-0.8-0.5-1.5-1-2.1-1.7V32h-3V10.8h3V12.9z M52.7,17.9c0-1-0.2-1.8-0.6-2.5c-0.4-0.7-0.9-1.3-1.6-1.6c-0.7-0.4-1.4-0.6-2.1-0.6
			c-0.7,0-1.5,0.2-2.1,0.6c-0.7,0.4-1.2,0.9-1.6,1.7C44.2,16.1,44,17,44,18s0.2,1.9,0.6,2.6c0.4,0.7,1,1.3,1.6,1.7
			c0.7,0.4,1.4,0.6,2.1,0.6c0.8,0,1.5-0.2,2.1-0.6c0.7-0.4,1.2-1,1.6-1.7C52.5,19.8,52.7,18.9,52.7,17.9z"/>
		<path class="st3" d="M64.8,25.4c-1.4,0-2.6-0.3-3.7-0.9c-1.1-0.6-2-1.5-2.6-2.6c-0.6-1.1-0.9-2.4-0.9-3.9c0-1.5,0.3-2.7,1-3.9
			c0.6-1.1,1.5-2,2.6-2.6c1.1-0.6,2.3-0.9,3.7-0.9c1.4,0,2.6,0.3,3.7,0.9c1.1,0.6,2,1.5,2.6,2.6c0.6,1.1,1,2.4,1,3.9s-0.3,2.7-1,3.9
			c-0.7,1.1-1.6,2-2.7,2.6C67.5,25.1,66.2,25.4,64.8,25.4z M64.8,22.8c0.8,0,1.5-0.2,2.1-0.5c0.7-0.4,1.2-0.9,1.6-1.6
			c0.4-0.7,0.6-1.6,0.6-2.7c0-1-0.2-1.9-0.6-2.6c-0.4-0.7-0.9-1.3-1.6-1.6s-1.4-0.5-2.1-0.5c-0.8,0-1.5,0.2-2.1,0.5
			c-0.6,0.4-1.2,0.9-1.5,1.6c-0.4,0.7-0.6,1.6-0.6,2.6c0,1.5,0.4,2.7,1.2,3.6C62.6,22.4,63.6,22.8,64.8,22.8z"/>
		<path class="st3" d="M78.2,12.9c0.4-0.7,1-1.3,1.7-1.7c0.7-0.4,1.6-0.6,2.6-0.6v3.1h-0.8c-1.2,0-2,0.3-2.7,0.9
			c-0.6,0.6-0.9,1.6-0.9,3.1v7.5h-3V10.8h3V12.9z"/>
		<path class="st3" d="M88.6,13.3v7.9c0,0.5,0.1,0.9,0.4,1.2c0.3,0.2,0.7,0.3,1.3,0.3h1.8v2.5h-2.3c-1.3,0-2.4-0.3-3.1-0.9
			s-1.1-1.6-1.1-3v-7.9H84v-2.4h1.7V7.3h3v3.6h3.5v2.4H88.6z"/>
		<path class="st3" d="M93.9,17.9c0-1.4,0.3-2.7,0.9-3.8c0.6-1.1,1.4-2,2.4-2.6c1-0.6,2.2-0.9,3.4-0.9c1.1,0,2.1,0.2,2.9,0.7
			c0.8,0.4,1.5,1,2,1.6v-2.1h3v14.3h-3V23c-0.5,0.7-1.2,1.2-2.1,1.7c-0.9,0.5-1.9,0.7-3,0.7c-1.2,0-2.4-0.3-3.4-0.9
			c-1-0.6-1.8-1.5-2.4-2.7C94.2,20.7,93.9,19.4,93.9,17.9z M105.6,18c0-1-0.2-1.8-0.6-2.6c-0.4-0.7-0.9-1.3-1.6-1.7
			c-0.7-0.4-1.4-0.6-2.1-0.6c-0.8,0-1.5,0.2-2.1,0.6c-0.7,0.4-1.2,0.9-1.6,1.6c-0.4,0.7-0.6,1.6-0.6,2.5s0.2,1.9,0.6,2.6
			c0.4,0.7,1,1.3,1.6,1.7c0.7,0.4,1.4,0.6,2.1,0.6c0.8,0,1.5-0.2,2.1-0.6c0.7-0.4,1.2-0.9,1.6-1.7C105.4,19.8,105.6,19,105.6,18z"/>
		<path class="st3" d="M114,8.9c-0.5,0-1-0.2-1.4-0.5c-0.4-0.4-0.5-0.8-0.5-1.4c0-0.5,0.2-1,0.5-1.4c0.4-0.4,0.8-0.5,1.4-0.5
			c0.5,0,1,0.2,1.3,0.5c0.4,0.4,0.5,0.8,0.5,1.4c0,0.5-0.2,1-0.5,1.4C114.9,8.8,114.5,8.9,114,8.9z M115.4,10.8v14.3h-3V10.8H115.4z
			"/>
		<path class="st3" d="M126.6,10.6c1.1,0,2.1,0.2,3,0.7c0.9,0.5,1.6,1.2,2.1,2.1c0.5,0.9,0.8,2,0.8,3.3v8.5h-2.9v-8
			c0-1.3-0.3-2.3-1-2.9c-0.6-0.7-1.5-1-2.6-1c-1.1,0-2,0.3-2.7,1c-0.6,0.7-1,1.7-1,2.9v8h-3V10.8h3v1.6c0.5-0.6,1.1-1,1.8-1.4
			C124.9,10.8,125.7,10.6,126.6,10.6z"/>
		<path class="st3" d="M149.3,17.6c0,0.5,0,1-0.1,1.5h-10.9c0.1,1.1,0.5,2.1,1.3,2.8c0.8,0.7,1.7,1,2.8,1c1.6,0,2.7-0.7,3.4-2h3.2
			c-0.4,1.3-1.2,2.4-2.4,3.2c-1.1,0.8-2.5,1.2-4.2,1.2c-1.4,0-2.6-0.3-3.7-0.9c-1.1-0.6-1.9-1.5-2.5-2.6c-0.6-1.1-0.9-2.4-0.9-3.9
			c0-1.5,0.3-2.8,0.9-3.9c0.6-1.1,1.4-2,2.5-2.6c1.1-0.6,2.3-0.9,3.7-0.9c1.4,0,2.6,0.3,3.6,0.9c1.1,0.6,1.9,1.4,2.5,2.5
			C149.1,15,149.3,16.3,149.3,17.6z M146.3,16.7c0-1.1-0.4-2-1.2-2.6c-0.8-0.7-1.7-1-2.8-1c-1,0-1.9,0.3-2.6,1
			c-0.7,0.6-1.2,1.5-1.3,2.6H146.3z"/>
		<path class="st3" d="M155.2,12.9c0.4-0.7,1-1.3,1.7-1.7c0.7-0.4,1.6-0.6,2.6-0.6v3.1h-0.8c-1.2,0-2,0.3-2.7,0.9
			c-0.6,0.6-0.9,1.6-0.9,3.1v7.5h-3V10.8h3V12.9z"/>
		<path class="st3" d="M163.4,25.3c-0.5,0-1-0.2-1.4-0.5s-0.5-0.8-0.5-1.4c0-0.5,0.2-1,0.5-1.4s0.8-0.5,1.4-0.5c0.5,0,1,0.2,1.3,0.5
			c0.4,0.4,0.5,0.8,0.5,1.4c0,0.5-0.2,1-0.5,1.4C164.4,25.2,164,25.3,163.4,25.3z"/>
		<path class="st3" d="M170,8.9c-0.5,0-1-0.2-1.4-0.5c-0.4-0.4-0.5-0.8-0.5-1.4c0-0.5,0.2-1,0.5-1.4c0.4-0.4,0.8-0.5,1.4-0.5
			c0.5,0,1,0.2,1.3,0.5c0.4,0.4,0.5,0.8,0.5,1.4c0,0.5-0.2,1-0.5,1.4C171,8.8,170.5,8.9,170,8.9z M171.5,10.8v14.3h-3V10.8H171.5z"
			/>
		<path class="st3" d="M181.6,25.4c-1.4,0-2.6-0.3-3.7-0.9c-1.1-0.6-1.9-1.5-2.6-2.6c-0.6-1.1-0.9-2.4-0.9-3.9c0-1.5,0.3-2.7,1-3.9
			c0.6-1.1,1.5-2,2.6-2.6c1.1-0.6,2.3-0.9,3.7-0.9c1.4,0,2.6,0.3,3.7,0.9c1.1,0.6,2,1.5,2.6,2.6c0.6,1.1,1,2.4,1,3.9s-0.3,2.7-1,3.9
			c-0.7,1.1-1.6,2-2.7,2.6C184.2,25.1,183,25.4,181.6,25.4z M181.6,22.8c0.8,0,1.5-0.2,2.1-0.5c0.7-0.4,1.2-0.9,1.6-1.6
			c0.4-0.7,0.6-1.6,0.6-2.7c0-1-0.2-1.9-0.6-2.6c-0.4-0.7-0.9-1.3-1.6-1.6c-0.7-0.4-1.4-0.5-2.1-0.5c-0.8,0-1.5,0.2-2.1,0.5
			c-0.6,0.4-1.2,0.9-1.5,1.6c-0.4,0.7-0.6,1.6-0.6,2.6c0,1.5,0.4,2.7,1.2,3.6C179.4,22.4,180.4,22.8,181.6,22.8z"/>
		<path class="st4" d="M61.4,35.2c0.4,0.1,0.6,0.2,0.9,0.6c0.2,0.3,0.4,0.7,0.4,1c0,0.3-0.1,0.6-0.3,0.9c-0.2,0.3-0.4,0.5-0.7,0.6
			c-0.3,0.2-0.7,0.2-1.1,0.2h-2.6v-6.5h2.5c0.4,0,0.8,0.1,1.1,0.2c0.3,0.2,0.6,0.4,0.7,0.6c0.2,0.3,0.2,0.5,0.2,0.8
			c0,0.4-0.1,0.7-0.3,0.9C62,34.9,61.8,35.1,61.4,35.2z M59,34.8h1.3c0.4,0,0.6-0.1,0.8-0.2c0.2-0.2,0.3-0.4,0.3-0.7
			c0-0.3-0.1-0.5-0.3-0.7c-0.2-0.2-0.5-0.3-0.8-0.3H59V34.8z M60.5,37.7c0.4,0,0.6-0.1,0.9-0.3c0.2-0.2,0.3-0.4,0.3-0.7
			c0-0.3-0.1-0.6-0.3-0.8c-0.2-0.2-0.5-0.3-0.9-0.3H59v2H60.5z"/>
		<path class="st4" d="M67.6,32.1v4.2c0,0.5,0.1,0.9,0.4,1.1c0.3,0.3,0.6,0.4,1.1,0.4c0.5,0,0.8-0.1,1.1-0.4
			c0.3-0.3,0.4-0.6,0.4-1.1v-4.2h1.1v4.1c0,0.5-0.1,1-0.3,1.4c-0.2,0.4-0.5,0.6-0.9,0.8c-0.4,0.2-0.8,0.3-1.3,0.3s-0.9-0.1-1.3-0.3
			c-0.4-0.2-0.7-0.5-0.9-0.8c-0.2-0.4-0.3-0.8-0.3-1.4v-4.1H67.6z"/>
		<path class="st4" d="M77.8,38.7c-0.4,0-0.8-0.1-1.2-0.2c-0.4-0.2-0.6-0.4-0.8-0.7c-0.2-0.3-0.3-0.6-0.3-1h1.1
			c0,0.3,0.1,0.5,0.3,0.7c0.2,0.2,0.5,0.3,0.8,0.3c0.4,0,0.7-0.1,0.9-0.3c0.2-0.2,0.3-0.4,0.3-0.7c0-0.2-0.1-0.4-0.2-0.5
			c-0.1-0.1-0.3-0.2-0.5-0.3c-0.2-0.1-0.5-0.2-0.8-0.2c-0.4-0.1-0.8-0.2-1-0.3c-0.3-0.1-0.5-0.3-0.7-0.5s-0.3-0.6-0.3-1
			c0-0.4,0.1-0.7,0.3-1c0.2-0.3,0.5-0.5,0.8-0.6c0.3-0.2,0.7-0.2,1.2-0.2c0.6,0,1.1,0.2,1.6,0.5c0.4,0.3,0.6,0.7,0.7,1.3h-1.2
			c0-0.2-0.1-0.4-0.3-0.6c-0.2-0.2-0.5-0.3-0.8-0.3c-0.3,0-0.6,0.1-0.8,0.2c-0.2,0.2-0.3,0.4-0.3,0.7c0,0.2,0.1,0.4,0.2,0.5
			c0.1,0.1,0.3,0.2,0.5,0.3c0.2,0.1,0.4,0.2,0.8,0.2c0.4,0.1,0.8,0.2,1.1,0.4c0.3,0.1,0.5,0.3,0.7,0.6c0.2,0.2,0.3,0.6,0.3,1
			c0,0.3-0.1,0.6-0.3,0.9c-0.2,0.3-0.4,0.5-0.8,0.7C78.6,38.6,78.2,38.7,77.8,38.7z"/>
		<path class="st4" d="M85,32.1v6.5h-1.1v-6.5H85z"/>
		<path class="st4" d="M94.4,38.6h-1.1l-3.2-4.9v4.9H89V32h1.1l3.2,4.9V32h1.1V38.6z"/>
		<path class="st4" d="M99.5,32.9v1.9h2.3v0.9h-2.3v2h2.5v0.9h-3.6V32h3.6v0.9H99.5z"/>
		<path class="st4" d="M108.2,38.7c-0.4,0-0.8-0.1-1.2-0.2c-0.4-0.2-0.6-0.4-0.8-0.7c-0.2-0.3-0.3-0.6-0.3-1h1.1
			c0,0.3,0.1,0.5,0.3,0.7c0.2,0.2,0.5,0.3,0.8,0.3c0.4,0,0.7-0.1,0.9-0.3c0.2-0.2,0.3-0.4,0.3-0.7c0-0.2-0.1-0.4-0.2-0.5
			c-0.1-0.1-0.3-0.2-0.5-0.3c-0.2-0.1-0.5-0.2-0.8-0.2c-0.4-0.1-0.8-0.2-1-0.3c-0.3-0.1-0.5-0.3-0.7-0.5c-0.2-0.2-0.3-0.6-0.3-1
			c0-0.4,0.1-0.7,0.3-1c0.2-0.3,0.5-0.5,0.8-0.6c0.3-0.2,0.7-0.2,1.2-0.2c0.6,0,1.1,0.2,1.6,0.5c0.4,0.3,0.6,0.7,0.7,1.3h-1.2
			c0-0.2-0.1-0.4-0.3-0.6c-0.2-0.2-0.5-0.3-0.8-0.3c-0.3,0-0.6,0.1-0.8,0.2c-0.2,0.2-0.3,0.4-0.3,0.7c0,0.2,0.1,0.4,0.2,0.5
			c0.1,0.1,0.3,0.2,0.5,0.3c0.2,0.1,0.4,0.2,0.8,0.2c0.4,0.1,0.8,0.2,1.1,0.4c0.3,0.1,0.5,0.3,0.7,0.6c0.2,0.2,0.3,0.6,0.3,1
			c0,0.3-0.1,0.6-0.3,0.9c-0.2,0.3-0.4,0.5-0.8,0.7C109,38.6,108.6,38.7,108.2,38.7z"/>
		<path class="st4" d="M116.5,38.7c-0.4,0-0.8-0.1-1.2-0.2c-0.4-0.2-0.6-0.4-0.8-0.7c-0.2-0.3-0.3-0.6-0.3-1h1.1
			c0,0.3,0.1,0.5,0.3,0.7c0.2,0.2,0.5,0.3,0.8,0.3c0.4,0,0.7-0.1,0.9-0.3c0.2-0.2,0.3-0.4,0.3-0.7c0-0.2-0.1-0.4-0.2-0.5
			c-0.1-0.1-0.3-0.2-0.5-0.3c-0.2-0.1-0.5-0.2-0.8-0.2c-0.4-0.1-0.8-0.2-1-0.3c-0.3-0.1-0.5-0.3-0.7-0.5c-0.2-0.2-0.3-0.6-0.3-1
			c0-0.4,0.1-0.7,0.3-1c0.2-0.3,0.5-0.5,0.8-0.6c0.3-0.2,0.7-0.2,1.2-0.2c0.6,0,1.2,0.2,1.6,0.5c0.4,0.3,0.6,0.7,0.7,1.3h-1.2
			c0-0.2-0.1-0.4-0.3-0.6c-0.2-0.2-0.5-0.3-0.8-0.3c-0.3,0-0.6,0.1-0.8,0.2c-0.2,0.2-0.3,0.4-0.3,0.7c0,0.2,0.1,0.4,0.2,0.5
			c0.1,0.1,0.3,0.2,0.5,0.3c0.2,0.1,0.4,0.2,0.8,0.2c0.4,0.1,0.8,0.2,1.1,0.4c0.3,0.1,0.5,0.3,0.7,0.6c0.2,0.2,0.3,0.6,0.3,1
			c0,0.3-0.1,0.6-0.3,0.9c-0.2,0.3-0.4,0.5-0.8,0.7C117.3,38.6,116.9,38.7,116.5,38.7z"/>
		<path class="st4" d="M128.8,32.9v1.9h2.3v0.9h-2.3v2h2.5v0.9h-3.6V32h3.6v0.9H128.8z"/>
		<path class="st4" d="M137.4,32.1c0.7,0,1.3,0.1,1.8,0.4c0.5,0.3,0.9,0.6,1.2,1.1c0.3,0.5,0.4,1.1,0.4,1.7c0,0.7-0.1,1.2-0.4,1.7
			c-0.3,0.5-0.7,0.9-1.2,1.1c-0.5,0.3-1.1,0.4-1.8,0.4h-2.1v-6.5H137.4z M137.4,37.7c0.8,0,1.4-0.2,1.8-0.6c0.4-0.4,0.6-1,0.6-1.7
			c0-0.8-0.2-1.4-0.6-1.8c-0.4-0.4-1-0.6-1.8-0.6h-1.1v4.8H137.4z"/>
		<path class="st4" d="M145.6,32.1v6.5h-1.1v-6.5H145.6z"/>
		<path class="st4" d="M153.9,32.1v0.9h-1.7v5.7h-1.1v-5.7h-1.7v-0.9H153.9z"/>
		<path class="st4" d="M158.7,32.1v6.5h-1.1v-6.5H158.7z"/>
		<path class="st4" d="M165.7,38.7c-0.6,0-1.2-0.1-1.7-0.4c-0.5-0.3-0.9-0.7-1.2-1.2c-0.3-0.5-0.4-1.1-0.4-1.7s0.1-1.2,0.4-1.7
			c0.3-0.5,0.7-0.9,1.2-1.2c0.5-0.3,1.1-0.4,1.7-0.4c0.6,0,1.2,0.1,1.7,0.4c0.5,0.3,0.9,0.7,1.2,1.2c0.3,0.5,0.4,1.1,0.4,1.7
			s-0.1,1.2-0.4,1.7c-0.3,0.5-0.7,0.9-1.2,1.2C166.9,38.5,166.3,38.7,165.7,38.7z M165.7,37.7c0.4,0,0.8-0.1,1.2-0.3
			c0.3-0.2,0.6-0.5,0.8-0.8c0.2-0.4,0.3-0.8,0.3-1.3c0-0.5-0.1-0.9-0.3-1.3c-0.2-0.4-0.5-0.6-0.8-0.8c-0.3-0.2-0.7-0.3-1.2-0.3
			c-0.4,0-0.8,0.1-1.2,0.3c-0.3,0.2-0.6,0.5-0.8,0.8c-0.2,0.4-0.3,0.8-0.3,1.3c0,0.5,0.1,0.9,0.3,1.3c0.2,0.4,0.5,0.6,0.8,0.8
			C164.9,37.6,165.2,37.7,165.7,37.7z"/>
		<path class="st4" d="M178.1,38.6H177l-3.2-4.9v4.9h-1.1V32h1.1l3.2,4.9V32h1.1V38.6z"/>
	</g>
</g>
</svg>
